<svg xmlns="http://www.w3.org/2000/svg" width="148.441" height="50" viewBox="0 0 148.441 50">
  <g id="Group_6" data-name="Group 6" transform="translate(13)">
    <path id="Path_423" data-name="Path 423" d="M236.5,38V63.186l3.241.025v-12h7.818V48.045h-7.818V41.167h10.168V38Zm19.248,5.121a2.128,2.128,0,1,0-2.128-2.128,2.128,2.128,0,0,0,2.128,2.128M254.09,63.21h3.241V46.288H254.09Zm15.265-17.417c-4.3,0-7.3,3.637-7.3,7.966s2.994,7.966,7.3,7.966a6.35,6.35,0,0,0,4.775-2v2.251a5.084,5.084,0,0,1-5.022,5.146h-.049a5.121,5.121,0,0,1-2.87-.965l-1.633,2.82A8.284,8.284,0,0,0,276.035,66.5a8.417,8.417,0,0,0,1.336-4.527V46.313H274.13v1.509a6.369,6.369,0,0,0-4.775-2.029M265.3,53.76a4.43,4.43,0,1,1,4.429,4.775A4.642,4.642,0,0,1,265.3,53.76m23.751-4.8a3.506,3.506,0,0,0-3.464,3.538V63.186h-3.241V46.263h3.241v1.559a5.1,5.1,0,0,1,4.181-2.029,5.584,5.584,0,0,1,5.022,2.845,6.218,6.218,0,0,1,5.146-2.845c3.686,0,5.987,2.969,5.987,6.655V63.186H302.7V52.5a3.464,3.464,0,1,0-6.927,0V63.186h-3.266V52.5a3.522,3.522,0,0,0-3.464-3.538m34.142-.767a7.774,7.774,0,0,0-5.715-2.4c-4.824,0-8.238,4.082-8.238,8.931,0,4.874,3.414,8.931,8.238,8.931a8.011,8.011,0,0,0,5.715-2.4v1.93h3.241V46.263H323.19Zm-10.713,6.531a5.371,5.371,0,1,1,5.344,5.764,5.625,5.625,0,0,1-5.344-5.764" transform="translate(-190.989 -28.599)"/>
    <path id="Path_424" data-name="Path 424" d="M67.3,75.737a8.337,8.337,0,1,1,8.337,8.337A8.341,8.341,0,0,1,67.3,75.737" transform="translate(-50.65 -50.725)" fill="#1abcfe"/>
    <path id="Path_425" data-name="Path 425" d="M0,143.037A8.341,8.341,0,0,1,8.337,134.7h8.337v8.337a8.337,8.337,0,1,1-16.675,0" transform="translate(0 -101.375)" fill="#0acf83"/>
    <path id="Path_426" data-name="Path 426" d="M67.3.025v16.65h8.337A8.337,8.337,0,0,0,75.637,0H67.3Z" transform="translate(-50.65)" fill="#ff7262"/>
    <path id="Path_427" data-name="Path 427" d="M0,8.512A8.341,8.341,0,0,0,8.337,16.85h8.337V.2H8.337A8.3,8.3,0,0,0,0,8.512" transform="translate(0 -0.15)" fill="#f24e1e"/>
    <path id="Path_428" data-name="Path 428" d="M0,75.812A8.341,8.341,0,0,0,8.337,84.15h8.337V67.5H8.337A8.3,8.3,0,0,0,0,75.812" transform="translate(0 -50.8)" fill="#a259ff"/>
    <rect id="Rectangle_48" data-name="Rectangle 48" width="148.441" height="50" transform="translate(-13)" fill="none"/>
  </g>
</svg>
